<svg xmlns="http://www.w3.org/2000/svg" viewBox="0 0 307.2 320" width="12" height="20">
  <path d="M159.72-96h-24.334C61.43-96 0-36.71 0 37.165V281.2C0 355.075 61.43 416 135.386 416h24.334c73.955 0 132.862-60.926 132.862-134.8V37.165C292.582-36.71 233.675-96 159.72-96zM268.2 281.2c0 60.434-47.965 110.42-108.48 110.42h-24.334c-60.514 0-111.004-49.985-111.004-110.42V37.165c0-60.427 51.812-109.588 109.718-109.6v49.578h24.382v-49.58C219.437-72.422 268.2-23.26 268.2 37.166V281.2z" fill="#ccc"/>
  <path d="M146.29-11.485c-20.167 0-36.572 16.436-36.572 36.63V37.22c0 20.196 16.406 36.628 36.573 36.628s36.574-16.433 36.574-36.63v-12.07c0-20.196-16.405-36.63-36.572-36.63zm12.19 48.704c0 6.865-5.356 12.246-12.19 12.246-6.726 0-12.19-5.494-12.19-12.248V25.145c0-6.756 5.464-12.25 12.19-12.25 6.727 0 12.19 5.494 12.19 12.25V37.22zM134.1 86.855h24.382v60.952H134.1z" fill="#ccc"/>
</svg>
