<svg xmlns="http://www.w3.org/2000/svg" viewBox="0 0 61.168 61.168" width="512" height="512">
  <path d="M30.938 26.584c3.86 0 7-3.14 7-7s-3.14-7-7-7-7 3.14-7 7 3.14 7 7 7zm0-12c2.757 0 5 2.243 5 5s-2.243 5-5 5-5-2.243-5-5 2.243-5 5-5z" fill="#fff"/>
  <path d="M50.216 37.584h-7.16l3.046-4.4c5.755-7.67 4.922-20.28-1.78-26.982C40.7 2.58 35.882.585 30.76.585c-5.123 0-9.94 1.995-13.56 5.617-6.704 6.702-7.537 19.312-1.805 26.952l3.068 4.43H10.95L0 60.584h61.168l-10.952-23zm-33.196-5.6c-5.2-6.933-4.454-18.32 1.596-24.37 3.244-3.243 7.558-5.03 12.146-5.03s8.9 1.787 12.146 5.03c6.05 6.05 6.795 17.438 1.573 24.4L30.76 51.827 20.9 37.584l-3.878-5.6zm-4.804 7.6h7.634L30.76 55.34l10.91-15.756h7.282l9.048 19H3.168l9.048-19z" fill="#fff"/>
</svg>
