<svg xmlns="http://www.w3.org/2000/svg" viewBox="0 0 60 60" width="512" height="512">
  <path d="M45 0H15c-2.21 0-4 1.79-4 4v52c0 2.21 1.79 4 4 4h30c2.21 0 4-1.79 4-4V4c0-2.21-1.79-4-4-4zm0 58H15c-1.105 0-2-.895-2-2v-6h29c.552 0 1-.448 1-1s-.448-1-1-1H13V4c0-1.105.895-2 2-2h30c1.105 0 2 .895 2 2v6H18c-.552 0-1 .448-1 1s.448 1 1 1h29v44c0 1.105-.895 2-2 2z" fill="#fff"/>
  <path d="M30 52c-1.105 0-2 .895-2 2s.895 2 2 2 2-.895 2-2-.895-2-2-2zm3-47h-6c-.552 0-1 .448-1 1s.448 1 1 1h6c.552 0 1-.448 1-1s-.448-1-1-1zM18.642 21.715l4.073-4.073c.375-.375.375-.983 0-1.358-.375-.375-.983-.375-1.358 0l-4.073 4.073c-.375.375-.375.983 0 1.358.376.375.983.375 1.358 0zm10.073-5.43c-.375-.375-.983-.375-1.358 0L17.285 26.358c-.375.375-.375.983 0 1.358.375.375.983.375 1.358 0l10.073-10.073c.374-.376.374-.983 0-1.358z" fill="#fff"/>
</svg>
