<svg xmlns="http://www.w3.org/2000/svg" width="16" height="16" viewBox="0 0 24 24">
  <path d="M12 1q2.242 0 4.277.87t3.508 2.345 2.344 3.508T23 12t-.87 4.277-2.345 3.508-3.508 2.344T12 23t-4.277-.87-3.508-2.345-2.344-3.508T1 12t.87-4.277 2.345-3.508T7.723 1.87 12 1zm0 2q-1.828 0-3.496.715t-2.87 1.918-1.92 2.87T3 12t.715 3.496 1.918 2.87 2.87 1.92T12 21t3.496-.715 2.87-1.918 1.92-2.87T21 12t-.715-3.496-1.918-2.87-2.87-1.92T12 3zm3.367 5.992q.414 0 .707.293t.293.707-.297.71l-4.242 4.243q-.29.29-.703.29-.422 0-.71-.29L8.29 12.828q-.29-.29-.29-.71 0-.415.292-.708T9 11.117t.71.297l1.415 1.414 3.53-3.54q.298-.296.712-.296z" fill="#ff4f00"/>
</svg>
