<svg xmlns="http://www.w3.org/2000/svg" viewBox="0 0 512 385" width="512" height="385">
  <path d="M97.912 123.8a12.308 12.308 0 0 0-12.308 12.307 12.308 12.308 0 0 0 12.308 12.31 12.308 12.308 0 0 0 12.31-12.31A12.308 12.308 0 0 0 97.91 123.8zm79.045 0a12.308 12.308 0 0 0-12.31 12.307 12.308 12.308 0 0 0 12.31 12.31 12.308 12.308 0 0 0 12.31-12.31 12.308 12.308 0 0 0-12.31-12.306zm79.045 0a12.308 12.308 0 0 0-12.31 12.307 12.308 12.308 0 0 0 12.31 12.31 12.308 12.308 0 0 0 12.307-12.31A12.308 12.308 0 0 0 256 123.8zm79.045 0a12.308 12.308 0 0 0-12.31 12.307 12.308 12.308 0 0 0 12.31 12.31 12.308 12.308 0 0 0 12.307-12.31 12.308 12.308 0 0 0-12.307-12.306zm79.043 0a12.308 12.308 0 0 0-12.31 12.307 12.308 12.308 0 0 0 12.31 12.31 12.308 12.308 0 0 0 12.308-12.31A12.308 12.308 0 0 0 414.09 123.8zm-274.28 43.63c-5.843 0-10.58 4.736-10.58 10.58v74.29c0 5.846 4.737 10.58 10.58 10.58h74.29c5.844 0 10.58-4.734 10.58-10.58v-74.288c0-5.845-4.737-10.582-10.58-10.582h-74.29zm10.58 21.16h53.13v53.13h-53.13v-53.13zm-52.478 14.256a12.308 12.308 0 0 0-12.308 12.306 12.308 12.308 0 0 0 12.308 12.31 12.308 12.308 0 0 0 12.31-12.31 12.308 12.308 0 0 0-12.31-12.306zm158.09 0a12.308 12.308 0 0 0-12.31 12.306 12.308 12.308 0 0 0 12.31 12.31 12.308 12.308 0 0 0 12.307-12.31A12.308 12.308 0 0 0 256 202.846zm79.045 0a12.308 12.308 0 0 0-12.31 12.306 12.308 12.308 0 0 0 12.31 12.31 12.308 12.308 0 0 0 12.307-12.31 12.308 12.308 0 0 0-12.307-12.306zm79.043 0a12.308 12.308 0 0 0-12.31 12.306 12.308 12.308 0 0 0 12.31 12.31 12.308 12.308 0 0 0 12.308-12.31 12.308 12.308 0 0 0-12.308-12.306zM97.912 281.89a12.308 12.308 0 0 0-12.308 12.307 12.308 12.308 0 0 0 12.308 12.31 12.308 12.308 0 0 0 12.31-12.31 12.308 12.308 0 0 0-12.31-12.308zm79.045 0a12.308 12.308 0 0 0-12.31 12.307 12.308 12.308 0 0 0 12.31 12.31 12.308 12.308 0 0 0 12.31-12.31 12.308 12.308 0 0 0-12.31-12.308zm79.045 0a12.308 12.308 0 0 0-12.31 12.307 12.308 12.308 0 0 0 12.31 12.31 12.308 12.308 0 0 0 12.307-12.31A12.308 12.308 0 0 0 256 281.89zm79.045 0a12.308 12.308 0 0 0-12.31 12.307 12.308 12.308 0 0 0 12.31 12.31 12.308 12.308 0 0 0 12.307-12.31 12.308 12.308 0 0 0-12.307-12.308zm79.043 0a12.308 12.308 0 0 0-12.31 12.307 12.308 12.308 0 0 0 12.31 12.31 12.308 12.308 0 0 0 12.308-12.31 12.308 12.308 0 0 0-12.308-12.308z" fill="#949595"/>
  <path d="M476.733 25.894h-77.71v-13.58c0-6.492-5.262-11.755-11.755-11.755-6.49 0-11.756 5.26-11.756 11.75v13.58h-64V12.31c0-6.492-5.265-11.755-11.757-11.755C293.262.56 288 5.822 288 12.315v13.58h-64v-13.58C224 5.82 218.737.56 212.244.56s-11.756 5.263-11.756 11.755v13.58h-64v-13.58c0-6.493-5.264-11.756-11.757-11.756-6.49 0-11.75 5.26-11.75 11.75v13.58H35.27C15.82 25.892 0 41.712 0 61.16v288.573C0 369.18 15.82 385 35.267 385h441.467C496.18 385 512 369.18 512 349.733V61.16c0-19.446-15.822-35.266-35.267-35.266zm0 335.596H35.267c-6.482 0-11.756-5.274-11.756-11.756V61.16c0-6.482 5.28-11.756 11.76-11.756h77.71v13.578c0 6.49 5.26 11.756 11.757 11.756 6.493 0 11.756-5.264 11.756-11.756V49.404h64v13.578c0 6.49 5.264 11.756 11.757 11.756s11.755-5.264 11.755-11.756V49.404h64v13.578c0 6.49 5.263 11.756 11.756 11.756 6.49 0 11.757-5.264 11.757-11.756V49.404h64v13.578c0 6.49 5.265 11.756 11.757 11.756s11.757-5.264 11.757-11.756V49.404h77.71c6.48 0 11.755 5.274 11.755 11.756v288.573c0 6.483-5.274 11.757-11.756 11.757z" fill="#949595"/>
</svg>
