<svg xmlns="http://www.w3.org/2000/svg" width="24" height="28" viewBox="0 0 24 28">
  <path d="M16 14c0-2.203-1.797-4-4-4s-4 1.797-4 4 1.797 4 4 4 4-1.797 4-4zm2.156 0c0 3.406-2.75 6.156-6.156 6.156S5.844 17.406 5.844 14 8.594 7.844 12 7.844s6.156 2.75 6.156 6.156zm1.688-6.406c0 .797-.64 1.437-1.437 1.437S16.97 8.39 16.97 7.6s.64-1.437 1.437-1.437 1.437.64 1.437 1.437zM12 4.156c-1.75 0-5.5-.14-7.078.484-.547.22-.953.484-1.375.906s-.688.828-.906 1.375c-.62 1.58-.48 5.33-.48 7.08s-.14 5.5.49 7.08c.22.55.486.958.908 1.38s.83.688 1.376.906c1.578.623 5.328.48 7.078.48s5.5.14 7.08-.482c.547-.22.953-.484 1.375-.906s.69-.826.908-1.373c.625-1.577.484-5.327.484-7.077s.14-5.5-.484-7.08c-.22-.547-.485-.953-.907-1.375s-.83-.687-1.377-.905c-1.58-.623-5.33-.482-7.08-.482zM24 14c0 1.656.016 3.297-.078 4.953-.094 1.922-.53 3.625-1.937 5.03s-3.11 1.845-5.03 1.938c-1.657.1-3.298.08-4.954.08s-3.29.02-4.95-.08c-1.92-.09-3.62-.53-5.03-1.93S.17 20.88.08 18.96c-.09-1.66-.075-3.3-.075-4.957S-.013 10.705.08 9.05c.095-1.922.53-3.625 1.938-5.03s3.11-1.845 5.03-1.938c1.658-.097 3.3-.08 4.955-.08s3.298-.016 4.954.08c1.922.092 3.625.53 5.03 1.935s1.845 3.11 1.938 5.03c.092 1.658.076 3.3.076 4.954z"/>
</svg>
