<svg xmlns="http://www.w3.org/2000/svg" viewBox="0 0 470 470" width="512" height="512">
  <path d="M462.5 22.5H330c-4.142 0-7.5 3.357-7.5 7.5s3.358 7.5 7.5 7.5h125v45H307.5V30c0-4.143-3.358-7.5-7.5-7.5H170c-4.142 0-7.5 3.357-7.5 7.5v52.5H15v-45h125c4.142 0 7.5-3.357 7.5-7.5s-3.358-7.5-7.5-7.5H7.5C3.358 22.5 0 25.857 0 30v410c0 4.143 3.358 7.5 7.5 7.5h455c4.142 0 7.5-3.357 7.5-7.5v-80c0-4.143-3.358-7.5-7.5-7.5s-7.5 3.357-7.5 7.5v72.5H15v-335h147.5V330c0 2.883 1.653 5.51 4.25 6.76 2.6 1.25 5.684.9 7.935-.903L235 287.604l60.315 48.252c1.356 1.085 3.014 1.644 4.686 1.644 1.11 0 2.22-.243 3.25-.74 2.6-1.25 4.25-3.877 4.25-6.76V97.5H455V330c0 4.143 3.358 7.5 7.5 7.5s7.5-3.357 7.5-7.5V30c0-4.143-3.358-7.5-7.5-7.5zm-170 291.896l-52.815-42.252c-1.37-1.096-3.027-1.644-4.685-1.644s-3.315.548-4.685 1.644L177.5 314.396V37.5h50V248c0 4.143 3.358 7.5 7.5 7.5s7.5-3.357 7.5-7.5V37.5h50v276.896z"  fill="#262626"/>
  <path d="M389.5 60c0-4.41-3.59-8-8-8s-8 3.59-8 8 3.59 8 8 8 8-3.59 8-8zm-41 0c0-4.41-3.59-8-8-8s-8 3.59-8 8 3.59 8 8 8 8-3.59 8-8zm82 0c0-4.41-3.59-8-8-8s-8 3.59-8 8 3.59 8 8 8 8-3.59 8-8z"  fill="#262626"/>
</svg>
