<svg xmlns="http://www.w3.org/2000/svg" viewBox="0 0 470 470" width="512" height="512">
  <path d="M462.5 22.5H7.5C3.358 22.5 0 25.858 0 30v410c0 4.142 3.358 7.5 7.5 7.5h455c4.143 0 7.5-3.358 7.5-7.5v-80c0-4.142-3.357-7.5-7.5-7.5s-7.5 3.358-7.5 7.5v72.5H15v-335h440V330c0 4.142 3.357 7.5 7.5 7.5s7.5-3.358 7.5-7.5V30c0-4.142-3.357-7.5-7.5-7.5zM15 37.5h277.5v45H15v-45zm292.5 45v-45H455v45H307.5z" fill="#262626"/>
  <path d="M381.5 52c-4.41 0-8 3.59-8 8s3.59 8 8 8 8-3.59 8-8-3.59-8-8-8zm-41 0c-4.41 0-8 3.59-8 8s3.59 8 8 8 8-3.59 8-8-3.59-8-8-8zm82 0c-4.41 0-8 3.59-8 8s3.59 8 8 8 8-3.59 8-8-3.59-8-8-8zm-271.15 95.764l60.393 60.392c2.93 2.93 7.678 2.93 10.606 0s2.92-7.678 0-10.606l-65.68-65.677c-2.92-2.922-7.66-2.93-10.59-.018l-44.27 43.97c-1.42 1.404-2.21 3.314-2.22 5.308s.78 3.906 2.19 5.316l29.01 29 36.82 36.82c1.46 1.46 3.38 2.19 5.3 2.19s3.83-.73 5.3-2.2c2.93-2.93 2.93-7.68 0-10.61l-2.5-2.5L192.88 222c2.93-2.927 2.93-7.676 0-10.604-2.93-2.93-7.68-2.93-10.61 0l-17.16 17.162-18.41-18.41 17.17-17.16c2.93-2.93 2.93-7.68 0-10.607-2.93-2.93-7.68-2.93-10.605 0L136.1 199.55l-18.39-18.39 33.624-33.4zM255.5 340.15l57.977 57.978c1.407 1.407 3.314 2.197 5.304 2.197s3.9-.79 5.31-2.197l44.12-44.12c2.93-2.928 2.93-7.677 0-10.605l-65.76-65.753c-2.93-2.928-7.67-2.928-10.6 0-2.93 2.93-2.93 7.68 0 10.607l60.45 60.45-33.51 33.51-18.38-18.38 17.17-17.165c2.93-2.93 2.93-7.678 0-10.606-2.93-2.93-7.67-2.93-10.6 0L289.8 353.23l-18.382-18.39 17.165-17.163c2.93-2.93 2.93-7.678 0-10.606-2.93-2.93-7.68-2.93-10.61 0l-17.16 17.17-2.473-2.47c-2.93-2.93-7.678-2.93-10.607 0-2.93 2.93-2.93 7.68 0 10.61l7.774 7.78zm-147.84 59.692c.992 0 1.994-.197 2.943-.603l65.622-28.03.133-.06c.064-.03.125-.07.188-.09.142-.07.284-.13.422-.21.082-.05.16-.1.24-.15.127-.08.254-.15.377-.23.104-.07.202-.15.303-.22.093-.07.19-.14.28-.21.19-.16.373-.32.547-.5l162.06-162.05 19.08-19.086c6.44-6.44 9.987-15.013 9.987-24.14s-3.546-17.7-9.986-24.14c-6.44-6.44-15.014-9.988-24.14-9.988-9.13 0-17.702 3.545-24.143 9.985l-19.075 19.08-162.064 162.07c-.175.18-.34.36-.495.55-.08.1-.15.19-.22.29-.08.1-.15.197-.22.3-.09.123-.16.253-.24.383-.05.078-.1.15-.14.23-.08.14-.15.288-.21.43l-.09.18-.05.1-28.038 65.657c-1.205 2.817-.574 6.083 1.592 8.25 1.433 1.436 3.35 2.197 5.303 2.197zm190.136-224.706l27.068 27.068-151.452 151.452-27.068-27.068 151.452-151.452zm24.385-24.385c3.61-3.6 8.42-5.59 13.54-5.59 5.12 0 9.93 1.99 13.54 5.6 3.61 3.61 5.6 8.42 5.6 13.54 0 5.12-1.98 9.93-5.59 13.54l-13.79 13.77-27.06-27.07 13.778-13.77zm-183.9 188.99l21.99 21.99-38.37 16.39 16.39-38.37z" fill="#262626"/>
</svg>
