<svg xmlns="http://www.w3.org/2000/svg" viewBox="0 0 470 470" width="512" height="512">
  <path d="M116.48 194.5h6.745v55.43c0 16.707 13.592 30.298 30.298 30.298h26.798c4.15 0 7.5-3.358 7.5-7.5V217c0-4.142-3.35-7.5-7.5-7.5s-7.5 3.358-7.5 7.5v48.228h-19.29c-8.433 0-15.296-6.863-15.296-15.298V194.5h71.106l157.946 45.066c.677.193 1.37.288 2.057.288 1.61 0 3.2-.52 4.517-1.513 1.877-1.41 2.98-3.63 2.98-5.98V63.87c0-2.358-1.106-4.57-2.984-5.99-1.88-1.42-4.313-1.875-6.575-1.227l-157.95 45.07h-92.85c-12.854 0-23.313 10.46-23.313 23.317v46.153c0 12.856 10.46 23.315 23.315 23.315zm245.356 27.914L217.88 181.34v-66.464l143.956-41.074v148.612zm-253.672-97.382c0-4.585 3.73-8.315 8.315-8.315h86.4V179.5h-86.4c-4.59 0-8.32-3.73-8.32-8.315v-46.153z" fill="#262626"/>
  <path d="M452.16 16.364H17.84C8.004 16.364 0 24.367 0 34.204V363.41c0 9.837 8.003 17.84 17.84 17.84h163.81v57.387h-70.74c-4.14 0-7.5 3.358-7.5 7.5s3.36 7.5 7.5 7.5h248.183c4.143 0 7.5-3.358 7.5-7.5s-3.357-7.5-7.5-7.5h-70.738V381.25H452.16c9.836 0 17.84-8.003 17.84-17.84V34.204c0-9.838-8.003-17.84-17.84-17.84zM273.35 438.636h-76.704V381.25h76.704v57.386zM455 363.41c0 1.54-1.3 2.84-2.84 2.84H17.84c-1.54 0-2.84-1.3-2.84-2.84V34.204c0-1.54 1.3-2.84 2.84-2.84h434.32c1.54 0 2.84 1.3 2.84 2.84V363.41z" fill="#262626"/>
  <path d="M431.477 305.227H38.523c-4.142 0-7.5 3.358-7.5 7.5s3.358 7.5 7.5 7.5h392.954c4.142 0 7.5-3.358 7.5-7.5s-3.358-7.5-7.5-7.5z" fill="#262626"/>
</svg>
