<svg xmlns="http://www.w3.org/2000/svg" viewBox="0 0 470 470" width="512" height="512">
  <path d="M462.5 22.5H7.5C3.357 22.5 0 25.858 0 30v410c0 4.142 3.357 7.5 7.5 7.5h455c4.143 0 7.5-3.358 7.5-7.5v-80c0-4.142-3.357-7.5-7.5-7.5s-7.5 3.358-7.5 7.5v72.5H15v-335h440V330c0 4.142 3.357 7.5 7.5 7.5s7.5-3.358 7.5-7.5V30c0-4.142-3.357-7.5-7.5-7.5zM15 37.5h277.5v45H15v-45zm292.5 45v-45H455v45H307.5z" fill="#262626"/>
  <path d="M381.5 52c-4.41 0-8 3.59-8 8s3.59 8 8 8 8-3.59 8-8-3.59-8-8-8zm-41 0c-4.41 0-8 3.59-8 8s3.59 8 8 8 8-3.59 8-8-3.59-8-8-8zm82 0c-4.41 0-8 3.59-8 8s3.59 8 8 8 8-3.59 8-8-3.59-8-8-8zM269.745 328.458c0 1.99.79 3.897 2.196 5.303l58.55 58.55c1.41 1.41 3.32 2.2 5.31 2.2s3.9-.79 5.308-2.19l21.213-21.213c2.93-2.93 2.93-7.677 0-10.605l-58.542-58.54c-2.93-2.93-7.676-2.93-10.606 0l-5.3 5.3-10.83-10.83c32.824-38.264 31.15-96.13-5.08-132.36-18.416-18.42-42.9-28.56-68.943-28.56s-50.527 10.14-68.943 28.558c-38.012 38.015-38.012 99.87 0 137.886 18.42 18.414 42.9 28.555 68.946 28.555 23.53 0 45.78-8.28 63.44-23.46l10.806 10.81-5.303 5.3c-1.405 1.407-2.195 3.314-2.195 5.3zm-125.082-37.123c-32.167-32.167-32.167-84.506 0-116.673 15.582-15.582 36.3-24.164 58.336-24.164s42.75 8.582 58.33 24.164c32.16 32.167 32.16 84.506 0 116.673-15.58 15.582-36.3 24.164-58.34 24.164s-42.76-8.59-58.34-24.17zm201.732 74.453l-10.606 10.607-47.94-47.936 5.3-5.31 5.3-5.31 47.93 47.932z" fill="#262626"/>
  <path d="M250.73 185.27c-12.75-12.75-29.7-19.77-47.73-19.77s-34.98 7.02-47.73 19.77c-26.318 26.318-26.318 69.14 0 95.46 12.75 12.748 29.7 19.77 47.73 19.77s34.98-7.02 47.73-19.77c26.317-26.32 26.317-69.143 0-95.46zm-10.608 84.852c-9.916 9.916-23.1 15.377-37.123 15.377s-27.21-5.47-37.13-15.38c-20.47-20.47-20.47-53.78 0-74.25 9.91-9.92 23.1-15.38 37.12-15.38s27.2 5.46 37.12 15.37c20.47 20.47 20.47 53.775 0 74.245z" fill="#262626"/>
</svg>
