<svg xmlns="http://www.w3.org/2000/svg" width="512" height="512" viewBox="0 0 33.004 33.003">
  <path d="M4.393 4.788c-5.857 5.857-5.858 15.354 0 21.213 4.875 4.88 12.27 5.69 17.994 2.45l10.617 4.16-4.857-9.99c3.133-5.69 2.29-12.99-2.54-17.82-5.86-5.86-15.357-5.85-21.214 0zm20.924 17.36l.26.513 1.093 2.15.006.01 1.717 3.54-3.748-1.47-.037-.01-2.352-.88-.582-.216C16.9 28.85 10.454 28.3 6.28 24.126c-4.81-4.81-4.81-12.638-.003-17.447 4.81-4.81 12.634-4.81 17.443 0 4.2 4.2 4.73 10.693 1.597 15.474z" fill="#0c1028"/>
  <path d="M10.296 21.464c2.185-.08 4.167-.713 5.957-1.937 1.65-1.127 2.9-2.6 3.76-4.405.535-1.125.874-2.306.995-3.547.04-.397.062-.8.062-1.2.003-.3-.098-.58-.31-.804-.26-.26-.537-.52-.79-.79-.605-.65-1.614-.66-2.304-.05-.28.26-.48.56-.573.93-.148.58-.335 1.15-.452 1.74-.1.53.07 1.01.45 1.408.17.174.34.34.51.51.06.056.07.104.05.18-.72 2.308-2.24 3.82-4.55 4.554-.08.024-.13.01-.19-.055-.15-.162-.31-.32-.48-.48-.46-.44-1-.586-1.61-.435-.533.135-1.064.29-1.6.436-.94.26-1.65 1.366-1.164 2.38.074.16.185.3.3.43.26.275.53.536.8.805.245.25.553.34.888.36.1.005.198 0 .27 0z" fill="#0c1028"/>
</svg>
