<svg xmlns="http://www.w3.org/2000/svg" width="14" height="14" viewBox="0 0 64 64"><path d="M32 0C14.327 0 0 14.327 0 32s14.327 32 32 32 32-14.327 32-32S49.673 0 32 0zm0 62C15.432 62 2 48.568 2 32 2 15.433 15.432 2 32 2c16.568 0 30 13.432 30 30 0 16.568-13.432 30-30 30z" fill="#444"/><path d="M41.11 30.34l-12-7.988a2.007 2.007 0 0 0-2.054-.1A1.995 1.995 0 0 0 26 24.012v15.98a1.998 1.998 0 0 0 3.11 1.662l12-7.99a1.996 1.996 0 0 0 0-3.323zm-2.31 3.082l-9.39 5.786c-.503.335-1.41.35-1.41.35V24.35s.907-.046 1.41.287l9.39 6.193c.457.303.73.688.73 1.234 0 .545-.273 1.057-.73 1.36z" fill="#444"/></svg>